<svg width="118" height="40" viewBox="0 0 118 40" fill="none" xmlns="http://www.w3.org/2000/svg">
<path d="M108.535 0H9.47062C9.10639 0 8.74654 0 8.3832 0.002C8.07907 0.004 7.77741 0.0098 7.4704 0.0147C6.80938 0.0312 6.14013 0.0723 5.48001 0.1914C4.81512 0.3086 4.19721 0.5088 3.59192 0.8184C2.99726 1.125 2.45404 1.5234 1.98413 1.9971C1.50886 2.4707 1.11503 3.0196 0.813876 3.6182C0.504973 4.2266 0.309003 4.8516 0.193089 5.5215C0.0733025 6.1836 0.0320823 6.8535 0.0150975 7.5235C0.00586023 7.8301 0.00486697 8.1377 0 8.4443C0 8.8066 0 9.1699 0 9.5361V30.4648C0 30.834 0 31.1953 0 31.5586C0.00486697 31.8691 0.00586023 32.1699 0.0149982 32.4805C0.0319829 33.1504 0.0732032 33.8203 0.19299 34.4824C0.308903 35.1523 0.504873 35.7803 0.813777 36.3867C1.11493 36.9824 1.50876 37.5313 1.98403 38.001C2.45394 38.4785 2.99716 38.876 3.59182 39.1797C4.19711 39.4922 4.81502 39.6895 5.47991 39.8105C6.14003 39.9297 6.80928 39.9688 7.4703 39.9873C7.77731 39.9941 8.07897 39.998 8.3831 39.998C8.74644 40 9.10639 40 9.47062 40H108.535C108.892 40 109.254 40 109.611 39.998C109.914 39.998 110.224 39.9941 110.527 39.9873C111.193 39.9688 111.86 39.9297 112.514 39.8105C113.179 39.6895 113.798 39.4922 114.409 39.1797C115.003 38.876 115.546 38.4785 116.015 38.001C116.489 37.5313 116.882 36.9824 117.189 36.3867C117.493 35.7803 117.691 35.1523 117.804 34.4824C117.926 33.8203 117.965 33.1504 117.988 32.4805C117.992 32.1699 117.992 31.8691 117.992 31.5586C118 31.1953 118 30.834 118 30.4648V9.5361C118 9.1699 118 8.8066 117.992 8.4443C117.992 8.1377 117.992 7.83 117.988 7.5234C117.965 6.8535 117.926 6.1836 117.804 5.5214C117.691 4.8515 117.493 4.2265 117.189 3.6181C116.882 3.0195 116.489 2.4706 116.015 1.997C115.546 1.5234 115.003 1.1249 114.409 0.8183C113.798 0.5087 113.179 0.3085 112.514 0.1913C111.86 0.0722 111.193 0.0311 110.527 0.0145C110.224 0.0096 109.914 0.0038 109.611 0.0018C109.254 0 108.892 0 108.535 0Z" fill="#A6A6A6"/>
<path d="M8.38807 39.125C8.08543 39.125 7.79003 39.1211 7.48987 39.1143C6.93454 39.0986 6.27591 39.0674 5.63327 38.9512C5.02699 38.8408 4.48814 38.6611 3.98764 38.4033C3.46965 38.1387 3.00402 37.7969 2.60006 37.3867C2.18875 36.9805 1.85074 36.5137 1.58644 35.9902C1.32888 35.4854 1.15288 34.9434 1.0471 34.333C0.92582 33.6602 0.894831 32.9775 0.88172 32.458C0.875462 32.2471 0.867218 31.5449 0.867218 31.5449V8.4443C0.867218 8.4443 0.875959 7.7529 0.88172 7.5498C0.894831 7.0259 0.92582 6.3438 1.0461 5.6777C1.15238 5.064 1.32839 4.5225 1.58594 4.0156C1.84975 3.4912 2.18835 3.022 2.5943 2.6177C3.00511 2.2036 3.47263 1.8609 3.98724 1.5952C4.49748 1.3345 5.03533 1.1562 5.6295 1.0513C6.29836 0.9307 6.97635 0.9004 7.49235 0.8872L8.38857 0.875H109.607L110.514 0.8877C111.023 0.9004 111.701 0.9307 112.359 1.0503C112.958 1.1558 113.499 1.335 114.019 1.5982C114.528 1.8609 114.995 2.2037 115.401 2.6138C115.808 3.02 116.148 3.4917 116.418 4.0181C116.674 4.5293 116.849 5.0708 116.949 5.667C117.065 6.2979 117.101 6.9458 117.122 7.5542C117.125 7.8374 117.125 8.1416 117.125 8.4443C117.133 8.8193 117.133 9.1762 117.133 9.5361V30.4648C117.133 30.8281 117.133 31.1826 117.125 31.54C117.125 31.8652 117.125 32.1631 117.121 32.4697C117.101 33.0586 117.065 33.7061 116.951 34.3232C116.849 34.9365 116.674 35.4785 116.415 35.9932C116.147 36.5127 115.807 36.9824 115.406 37.3789C114.996 37.7969 114.53 38.1377 114.016 38.4014C113.501 38.665 112.975 38.8398 112.359 38.9512C111.723 39.0674 111.065 39.0986 110.503 39.1143C110.212 39.1211 109.907 39.125 109.612 39.125L108.535 39.127L8.38807 39.125Z" fill="black"/>
<path d="M12.4004 14.7319C10.709 14.7319 9.64209 13.5288 9.64209 11.602C9.64209 9.69973 10.7217 8.47552 12.3921 8.47552C13.7485 8.47552 14.7324 9.24452 14.9351 10.4521H14.0049C13.773 9.73292 13.2066 9.33982 12.3921 9.33982C11.2881 9.33982 10.5894 10.2124 10.5894 11.5937C10.5894 12.9995 11.292 13.8676 12.4126 13.8676C13.3887 13.8676 14.0586 13.2724 14.0669 12.3876V12.2592H12.5283V11.4819H14.9765V12.226C14.9765 13.7519 13.9633 14.7319 12.4004 14.7319Z" fill="white"/>
<path d="M20.083 13.3715C19.8887 14.1737 19.1606 14.6742 18.1313 14.6742C16.8408 14.6742 16.0512 13.7894 16.0512 12.35C16.0512 10.911 16.8574 9.99753 18.1269 9.99753C19.3798 9.99753 20.1367 10.8535 20.1367 12.2675V12.5776H16.9565V12.6274C16.9858 13.417 17.4448 13.9174 18.1557 13.9174C18.6933 13.9174 19.0615 13.7231 19.227 13.3715H20.083ZM16.9565 11.9203H19.2309C19.2104 11.2133 18.7802 10.7538 18.123 10.7538C17.4653 10.7538 17.0063 11.2172 16.9565 11.9203Z" fill="white"/>
<path d="M22.5346 8.96333V10.1049H23.5102V10.8534H22.5346V13.1688C22.5346 13.6405 22.7289 13.847 23.1713 13.847C23.3075 13.847 23.3861 13.8387 23.5102 13.8265V14.5667C23.3657 14.5911 23.2001 14.6121 23.0263 14.6121C22.038 14.6121 21.6454 14.2644 21.6454 13.3963V10.8533H20.9301V10.1049H21.6454V8.96333H22.5346Z" fill="white"/>
<path d="M27.0239 8.72363C27.0239 8.40133 27.2763 8.14062 27.5864 8.14062C27.8965 8.14062 28.1489 8.40133 28.1489 8.72363C28.1489 9.04203 27.8965 9.30272 27.5864 9.30272C27.2763 9.30272 27.0239 9.04193 27.0239 8.72363ZM27.144 10.0844H28.0288V14.5873H27.144V10.0844Z" fill="white"/>
<path d="M30.6665 8.96333V10.1049H31.6421V10.8534H30.6665V13.1688C30.6665 13.6405 30.8608 13.847 31.3032 13.847C31.4394 13.847 31.518 13.8387 31.6421 13.8265V14.5667C31.4976 14.5911 31.332 14.6121 31.1582 14.6121C30.1699 14.6121 29.7773 14.2644 29.7773 13.3963V10.8533H29.062V10.1049H29.7773V8.96333H30.6665Z" fill="white"/>
<path d="M35.0356 12.3339C35.0356 10.8822 35.8461 9.99753 37.1611 9.99753C38.4716 9.99753 39.2822 10.8823 39.2822 12.3339C39.2822 13.7934 38.476 14.6742 37.1611 14.6742C35.8418 14.6742 35.0356 13.7934 35.0356 12.3339ZM38.3686 12.3339C38.3686 11.3578 37.9301 10.787 37.1611 10.787C36.3877 10.787 35.9536 11.3578 35.9536 12.3339C35.9536 13.3178 36.3877 13.8842 37.1611 13.8842C37.9301 13.8842 38.3686 13.3139 38.3686 12.3339Z" fill="white"/>
<path d="M40.4775 10.0844H41.3335V10.7997H41.3999C41.6187 10.2992 42.0654 9.99753 42.7437 9.99753C43.7486 9.99753 44.3028 10.601 44.3028 11.6723V14.5873H43.4136V11.8954C43.4136 11.1718 43.0991 10.8119 42.4419 10.8119C41.7842 10.8119 41.3667 11.2504 41.3667 11.953V14.5873H40.4775V10.0844Z" fill="white"/>
<path d="M18.1687 31H20.1938L15.7419 18.6697H13.6741L9.22217 31H11.2131L12.3411 27.6675H17.0408L18.1687 31ZM14.6653 20.7205H14.7166L16.5537 26.1294H12.8281L14.6653 20.7205ZM21.3303 31H23.176V25.4458C23.176 24.2922 23.9536 23.4377 25.0474 23.4377C26.0898 23.4377 26.7478 24.0957 26.7478 25.1296V31H28.5593V25.386C28.5593 24.2495 29.3198 23.4377 30.4136 23.4377C31.5073 23.4377 32.1311 24.1042 32.1311 25.2664V31H33.9854V24.822C33.9854 23.0361 32.8232 21.8569 31.0459 21.8569C29.7642 21.8569 28.7046 22.5234 28.2432 23.6172H28.2004C27.8416 22.4978 26.9358 21.8569 25.6882 21.8569C24.4749 21.8569 23.5349 22.5234 23.1333 23.5232H23.0906V22.0107H21.3303V31ZM38.9158 29.6926C37.9246 29.6926 37.2751 29.1799 37.2751 28.3938C37.2751 27.6248 37.8989 27.1377 39.0012 27.0608L41.2144 26.9241V27.6333C41.2144 28.804 40.2061 29.6926 38.9158 29.6926ZM38.4031 31.1538C39.5823 31.1538 40.7188 30.5215 41.24 29.5217H41.2827V31H43.0515V24.8049C43.0515 23.002 41.6587 21.8484 39.4797 21.8484C37.2581 21.8484 35.8738 23.0447 35.7712 24.6682H37.5144C37.6768 23.865 38.3433 23.3523 39.4114 23.3523C40.5393 23.3523 41.2144 23.9504 41.2144 24.9502V25.6423L38.7534 25.7876C36.6172 25.9072 35.4124 26.8728 35.4124 28.4451C35.4124 30.0601 36.6428 31.1538 38.4031 31.1538ZM44.5896 31H51.5537V29.5303H46.8284V29.4961L51.5024 23.2754V22.0107H44.6238V23.4805H49.3833V23.5146L44.5896 29.8123V31ZM56.7747 31.1709C59.3467 31.1709 61.0386 29.4021 61.0386 26.5054C61.0386 23.6172 59.3381 21.8484 56.7747 21.8484C54.2112 21.8484 52.5107 23.6172 52.5107 26.5054C52.5107 29.4021 54.2026 31.1709 56.7747 31.1709ZM56.7747 29.6499C55.3306 29.6499 54.3906 28.5049 54.3906 26.5054C54.3906 24.5144 55.3306 23.3694 56.7747 23.3694C58.2188 23.3694 59.1587 24.5144 59.1587 26.5054C59.1587 28.5049 58.2273 29.6499 56.7747 29.6499ZM62.4656 31H64.3113V25.762C64.3113 24.3691 65.1487 23.4463 66.4475 23.4463C67.7292 23.4463 68.3616 24.1897 68.3616 25.5398V31H70.2158V25.1809C70.2158 23.1216 69.0793 21.8569 67.0969 21.8569C65.7126 21.8569 64.7556 22.4893 64.2686 23.5146H64.2258V22.0107H62.4656V31ZM73.386 31.094C74.0098 31.094 74.5054 30.5984 74.5054 29.9746C74.5054 29.3508 74.0098 28.8552 73.386 28.8552C72.7622 28.8552 72.2666 29.3508 72.2666 29.9746C72.2666 30.5984 72.7622 31.094 73.386 31.094ZM83.8364 25.104C83.6741 23.3352 82.2642 21.8484 79.9485 21.8484C77.3936 21.8484 75.7188 23.6514 75.7188 26.5054C75.7188 29.4106 77.3936 31.1709 79.9656 31.1709C82.1274 31.1709 83.657 29.8721 83.8535 27.958H82.0762C81.8625 29.0005 81.1191 29.6243 79.9827 29.6243C78.5471 29.6243 77.5986 28.4792 77.5986 26.5054C77.5986 24.5742 78.5386 23.3865 79.9656 23.3865C81.1704 23.3865 81.8882 24.147 82.0762 25.104H83.8364ZM89.0232 31.1709C91.5952 31.1709 93.2871 29.4021 93.2871 26.5054C93.2871 23.6172 91.5867 21.8484 89.0232 21.8484C86.4597 21.8484 84.7593 23.6172 84.7593 26.5054C84.7593 29.4021 86.4512 31.1709 89.0232 31.1709ZM89.0232 29.6499C87.5791 29.6499 86.6392 28.5049 86.6392 26.5054C86.6392 24.5144 87.5791 23.3694 89.0232 23.3694C90.4673 23.3694 91.4072 24.5144 91.4072 26.5054C91.4072 28.5049 90.4758 29.6499 89.0232 29.6499ZM94.7141 31H96.5598V25.4458C96.5598 24.2922 97.3374 23.4377 98.4312 23.4377C99.4736 23.4377 100.132 24.0957 100.132 25.1296V31H101.943V25.386C101.943 24.2495 102.704 23.4377 103.797 23.4377C104.891 23.4377 105.515 24.1042 105.515 25.2664V31H107.369V24.822C107.369 23.0361 106.207 21.8569 104.43 21.8569C103.148 21.8569 102.088 22.5234 101.627 23.6172H101.584C101.225 22.4978 100.32 21.8569 99.072 21.8569C97.8586 21.8569 96.9187 22.5234 96.5171 23.5232H96.4744V22.0107H94.7141V31Z" fill="white"/>
</svg>
